<?xml version="1.0" standalone="no"?>
<!DOCTYPE svg PUBLIC "-//W3C//DTD SVG 20010904//EN"
 "http://www.w3.org/TR/2001/REC-SVG-20010904/DTD/svg10.dtd">
<svg version="1.0" xmlns="http://www.w3.org/2000/svg"
 width="700.000000pt" height="700.000000pt" viewBox="0 0 700.000000 700.000000"
 preserveAspectRatio="xMidYMid meet">
<metadata>
Created by potrace 1.14, written by Peter Selinger 2001-2017
</metadata>
<g transform="translate(0.000000,700.000000) scale(0.100000,-0.100000)"
fill="#000000" stroke="none">
<path d="M2820 6323 c-371 -372 -666 -672 -655 -668 89 32 396 112 505 131 14
3 30 6 37 9 6 2 38 7 70 11 32 3 60 8 63 9 3 2 33 7 65 10 l60 7 263 262 c144
143 265 263 267 265 2 2 648 -640 1434 -1426 l1430 -1430 -302 -300 c-258
-256 -345 -337 -472 -442 -149 -122 -466 -318 -660 -407 -283 -129 -621 -233
-875 -270 -19 -3 -46 -7 -60 -9 -14 -3 -47 -7 -75 -10 -27 -3 -72 -8 -99 -11
-112 -13 -400 -18 -521 -9 -103 7 -204 16 -226 20 -13 2 -42 6 -64 10 -100 14
-169 26 -174 29 -3 2 -22 7 -41 10 -19 3 -62 12 -95 20 -33 8 -61 14 -62 12
-1 -1 121 -125 272 -276 l275 -275 283 0 c280 0 393 6 559 30 24 4 59 9 78 11
19 3 80 14 135 25 631 126 1207 399 1695 803 126 104 137 115 618 594 l445
443 -49 50 c-54 56 -3443 3443 -3447 3446 -2 1 -306 -302 -677 -674z"/>
<path d="M3287 5413 c-1 0 -37 -4 -80 -8 -234 -19 -515 -66 -689 -115 -40 -12
-82 -23 -92 -25 -11 -3 -63 -19 -115 -36 -326 -108 -653 -267 -931 -452 -100
-67 -292 -210 -335 -250 -11 -10 -57 -50 -101 -89 -45 -39 -276 -265 -513
-502 l-432 -432 1746 -1744 c960 -960 1748 -1747 1750 -1749 3 -2 307 298 676
667 369 370 667 672 662 672 -4 0 -36 -9 -71 -20 -71 -22 -273 -76 -312 -84
-14 -2 -56 -11 -95 -20 -38 -8 -86 -18 -105 -20 -19 -3 -46 -8 -60 -11 -14 -3
-45 -8 -70 -11 -25 -3 -56 -7 -70 -9 -16 -3 -116 -96 -289 -269 l-264 -264
-1429 1430 -1430 1430 20 21 c28 30 561 559 575 572 7 6 44 37 82 71 249 216
560 406 880 539 50 20 99 41 110 46 127 55 508 156 662 174 12 2 34 6 50 9 15
3 57 8 92 12 35 3 82 8 105 10 157 18 517 8 751 -20 78 -10 358 -67 378 -77 9
-5 17 -6 17 -2 0 5 -123 131 -272 280 l-273 271 -80 3 c-89 3 -446 5 -448 2z"/>
<path d="M3338 4515 c-2 -1 -39 -5 -83 -9 -44 -3 -98 -8 -120 -11 -22 -3 -60
-7 -85 -11 -82 -10 -273 -54 -395 -90 -104 -32 -161 -52 -300 -107 -95 -38
-350 -176 -461 -249 -174 -116 -311 -228 -482 -395 l-143 -139 148 -145 c173
-168 311 -282 473 -388 130 -85 122 -80 243 -145 l88 -48 -35 71 c-81 161
-147 400 -150 546 0 13 -20 36 -53 60 -29 22 -51 45 -50 50 10 33 289 217 458
301 133 67 163 79 157 62 -84 -225 -86 -479 -6 -712 116 -339 429 -595 808
-662 98 -17 360 -4 615 31 163 22 490 114 640 180 412 181 663 350 984 666
l135 132 -150 146 c-167 164 -303 276 -468 385 -103 69 -316 190 -322 183 -2
-1 12 -34 30 -72 79 -168 123 -322 141 -500 5 -51 10 -58 84 -116 l33 -26 -79
-60 c-88 -67 -202 -143 -278 -185 -71 -40 -254 -128 -264 -128 -5 0 2 34 15
75 32 101 45 190 45 304 -1 96 -2 110 -22 209 -27 133 -100 294 -182 401 -88
114 -225 228 -349 292 -63 32 -211 83 -273 94 -39 7 -341 16 -347 10z m333
-474 c131 -41 259 -149 323 -270 27 -53 54 -126 46 -126 -1 0 4 -13 10 -29 16
-43 13 -181 -5 -251 -27 -103 -74 -184 -150 -260 -224 -224 -579 -222 -804 4
-139 140 -193 372 -133 567 56 180 231 340 415 379 83 17 217 11 298 -14z"/>
</g>
</svg>
